grf
version=1
nRows=52
nColumns=19
inDegrees=yes
endheader
time	ground_force_1_vx	ground_force_1_vy	ground_force_1_vz	ground_force_1_px	ground_force_1_py	ground_force_1_pz	ground_moment_1_mx	ground_moment_1_my	ground_moment_1_mz	ground_force_2_vx	ground_force_2_vy	ground_force_2_vz	ground_force_2_px	ground_force_2_py	ground_force_2_pz	ground_moment_2_mx	ground_moment_2_my	ground_moment_2_mz
3.992000	4.903093	1430.084766	-183.489027	0.170969	0.000000	-1.034298	-0.000000	19.620278	0.000000	11.066158	1514.883633	192.683056	0.165131	0.000000	-1.425990	-0.000000	-18.879680	-0.000000
3.993000	4.916929	1429.426921	-183.453226	0.171503	0.000000	-1.033363	-0.000000	19.589190	0.000000	11.062388	1515.629152	192.733357	0.165255	0.000000	-1.426348	-0.000000	-18.874774	-0.000000
3.994000	4.927900	1428.799619	-183.399732	0.171715	0.000000	-1.032726	-0.000000	19.559028	0.000000	11.073147	1516.365988	192.789298	0.166307	0.000000	-1.425523	-0.000000	-18.871614	-0.000000
3.995000	4.937724	1428.211334	-183.327401	0.171713	0.000000	-1.033710	-0.000000	19.529954	0.000000	11.099508	1517.085246	192.850908	0.165604	0.000000	-1.425895	-0.000000	-18.870202	-0.000000
3.996000	4.948160	1427.669388	-183.235127	0.171063	0.000000	-1.033213	-0.000000	19.502131	0.000000	11.142260	1517.778896	192.918118	0.165916	0.000000	-1.425616	-0.000000	-18.870459	-0.000000
3.997000	4.960985	1427.180221	-183.121954	0.170910	0.000000	-1.032979	-0.000000	19.475715	0.000000	11.201896	1518.439281	192.990755	0.165636	0.000000	-1.426824	-0.000000	-18.872232	-0.000000
3.998000	4.977997	1426.749804	-182.987184	0.172961	0.000000	-1.030804	-0.000000	19.450850	0.000000	11.278703	1519.058695	193.068548	0.165111	0.000000	-1.426118	-0.000000	-18.875345	-0.000000
3.999000	5.001051	1426.384579	-182.830411	0.172065	0.000000	-1.032907	-0.000000	19.427644	0.000000	11.372783	1519.629342	193.151157	0.165561	0.000000	-1.425496	0.000000	-18.879630	-0.000000
4.000000	5.032067	1426.091765	-182.651501	0.171082	0.000000	-1.033483	-0.000000	19.406146	0.000000	11.483972	1520.143407	193.238159	0.165507	0.000000	-1.427063	0.000000	-18.884904	-0.000000
4.001000	5.072965	1425.878165	-182.450586	0.170889	0.000000	-1.033192	-0.000000	19.386343	0.000000	11.611762	1520.593368	193.329033	0.165615	0.000000	-1.425970	0.000000	-18.890934	-0.000000
4.002000	5.125578	1425.749267	-182.228070	0.171297	0.000000	-1.033298	-0.000000	19.368181	0.000000	11.755332	1520.972332	193.423183	0.165491	0.000000	-1.425893	0.000000	-18.897436	-0.000000
4.003000	5.191616	1425.709761	-181.984657	0.170692	0.000000	-1.033438	-0.000000	19.351568	0.000000	11.913616	1521.273939	193.519969	0.165526	0.000000	-1.426120	0.000000	-18.904115	-0.000000
4.004000	5.272648	1425.764310	-181.721379	0.171204	0.000000	-1.033426	-0.000000	19.336380	0.000000	12.085383	1521.492231	193.618702	0.165434	0.000000	-1.426799	0.000000	-18.910697	-0.000000
4.005000	5.370060	1425.917338	-181.439639	0.169457	0.000000	-1.034601	-0.000000	19.322467	0.000000	12.269272	1521.622071	193.718677	0.165117	0.000000	-1.425369	0.000000	-18.916954	-0.000000
4.006000	5.484975	1426.171457	-181.141211	0.169828	0.000000	-1.034708	-0.000000	19.309675	0.000000	12.463795	1521.659778	193.819313	0.165924	0.000000	-1.426119	0.000000	-18.922703	-0.000000
4.007000	5.618229	1426.525880	-180.828155	0.171157	0.000000	-1.033516	-0.000000	19.297882	0.000000	12.667368	1521.603220	193.920266	0.165428	0.000000	-1.425551	0.000000	-18.927804	-0.000000
4.008000	5.770473	1426.976732	-180.502648	0.170862	0.000000	-1.034164	-0.000000	19.287026	0.000000	12.878366	1521.451262	194.021443	0.165601	0.000000	-1.425560	0.000000	-18.932160	-0.000000
4.009000	5.942215	1427.518460	-180.166905	0.171611	0.000000	-1.035835	0.000000	19.277099	0.000000	13.095163	1521.203367	194.122936	0.166022	0.000000	-1.425986	0.000000	-18.935706	-0.000000
4.010000	6.133709	1428.144131	-179.823259	0.170425	0.000000	-1.034545	0.000000	19.268111	0.000000	13.316124	1520.859780	194.224902	0.166004	0.000000	-1.427407	0.000000	-18.938374	0.000000
4.011000	6.344810	1428.845035	-179.474244	0.171059	0.000000	-1.033927	0.000000	19.260016	0.000000	13.539571	1520.421851	194.327437	0.165672	0.000000	-1.425601	0.000000	-18.940067	0.000000
4.012000	6.574954	1429.610907	-179.122558	0.169630	0.000000	-1.035824	0.000000	19.252699	0.000000	13.763765	1519.892000	194.430453	0.166039	0.000000	-1.427146	0.000000	-18.940655	0.000000
4.013000	6.823184	1430.430289	-178.770996	0.170734	0.000000	-1.034364	0.000000	19.245990	0.000000	13.986935	1519.273436	194.533648	0.165847	0.000000	-1.425871	0.000000	-18.939986	0.000000
4.014000	7.088154	1431.290723	-178.422378	0.169684	0.000000	-1.032779	0.000000	19.239694	0.000000	14.207370	1518.569896	194.636548	0.166002	0.000000	-1.426879	0.000000	-18.937903	0.000000
4.015000	7.368161	1432.179205	-178.079429	0.169561	0.000000	-1.034510	0.000000	19.233599	0.000000	14.423506	1517.785405	194.738557	0.166048	0.000000	-1.426816	0.000000	-18.934250	0.000000
4.016000	7.661224	1433.082586	-177.744707	0.169819	0.000000	-1.034366	0.000000	19.227478	0.000000	14.633963	1516.924042	194.838951	0.166446	0.000000	-1.427858	0.000000	-18.928863	0.000000
4.017000	7.965171	1433.987567	-177.420668	0.169799	0.000000	-1.034273	0.000000	19.221122	0.000000	14.837517	1515.989617	194.936855	0.166132	0.000000	-1.427286	0.000000	-18.921557	0.000000
4.018000	8.277674	1434.880900	-177.109741	0.170783	0.000000	-1.031662	0.000000	19.214349	0.000000	15.033052	1514.985093	195.031232	0.166152	0.000000	-1.426783	0.000000	-18.912133	0.000000
4.019000	8.596223	1435.750216	-176.814327	0.169888	0.000000	-1.033677	0.000000	19.206976	0.000000	15.219507	1513.912158	195.120965	0.166108	0.000000	-1.426717	0.000000	-18.900388	0.000000
4.020000	8.918116	1436.584865	-176.536736	0.169821	0.000000	-1.033742	0.000000	19.198791	0.000000	15.395851	1512.771382	195.204965	0.166319	0.000000	-1.426161	0.000000	-18.886130	-0.000000
4.021000	9.240542	1437.375975	-176.279101	0.169691	0.000000	-1.035274	0.000000	19.189557	0.000000	15.561084	1511.562702	195.282184	0.165766	0.000000	-1.426730	0.000000	-18.869177	-0.000000
4.022000	9.560690	1438.115848	-176.043247	0.169941	0.000000	-1.034615	0.000000	19.179032	0.000000	15.714254	1510.285806	195.351548	0.165511	0.000000	-1.424799	0.000000	-18.849364	-0.000000
4.023000	9.875859	1438.797359	-175.830578	0.168876	0.000000	-1.035704	0.000000	19.166993	0.000000	15.854502	1508.940428	195.411915	0.166409	0.000000	-1.427649	0.000000	-18.826559	-0.000000
4.024000	10.183554	1439.414073	-175.642127	0.169531	0.000000	-1.034340	0.000000	19.153272	0.000000	15.981142	1507.526798	195.462099	0.166311	0.000000	-1.426754	0.000000	-18.800680	-0.000000
4.025000	10.481486	1439.960976	-175.478735	0.169287	0.000000	-1.034342	0.000000	19.137764	0.000000	16.093702	1506.046195	195.500925	0.165870	0.000000	-1.427925	0.000000	-18.771686	-0.000000
4.026000	10.767488	1440.434874	-175.341083	0.169370	0.000000	-1.035042	0.000000	19.120408	0.000000	16.191958	1504.501330	195.527237	0.166243	0.000000	-1.426692	0.000000	-18.739574	-0.000000
4.027000	11.039454	1440.834256	-175.229608	0.169501	0.000000	-1.035043	0.000000	19.101161	0.000000	16.275950	1502.896417	195.539887	0.166460	0.000000	-1.427266	0.000000	-18.704391	-0.000000
4.028000	11.295366	1441.159100	-175.144451	0.169537	0.000000	-1.034440	0.000000	19.079993	0.000000	16.345957	1501.237060	195.537798	0.165781	0.000000	-1.427009	0.000000	-18.666220	-0.000000
4.029000	11.533351	1441.410837	-175.085463	0.169771	0.000000	-1.034241	0.000000	19.056888	0.000000	16.402397	1499.529948	195.520042	0.166132	0.000000	-1.427419	0.000000	-18.625163	-0.000000
4.030000	11.751758	1441.592520	-175.052211	0.168378	0.000000	-1.035269	0.000000	19.031862	0.000000	16.445705	1497.782456	195.485799	0.166866	0.000000	-1.427340	0.000000	-18.581340	-0.000000
4.031000	11.949217	1441.708864	-175.043979	0.169499	0.000000	-1.033920	0.000000	19.004975	0.000000	16.476306	1496.002604	195.434274	0.166401	0.000000	-1.425194	0.000000	-18.534894	-0.000000
4.032000	12.124648	1441.765678	-175.059781	0.169580	0.000000	-1.034097	0.000000	18.976329	0.000000	16.494739	1494.199180	195.364727	0.167123	0.000000	-1.427709	0.000000	-18.486015	-0.000000
4.033000	12.277194	1441.769063	-175.098409	0.169254	0.000000	-1.034294	0.000000	18.946053	0.000000	16.501837	1492.381494	195.276609	0.166775	0.000000	-1.427821	0.000000	-18.434967	-0.000000
4.034000	12.406155	1441.724979	-175.158450	0.169033	0.000000	-1.033749	0.000000	18.914286	0.000000	16.498758	1490.559142	195.169733	0.167420	0.000000	-1.428237	0.000000	-18.382084	-0.000000
4.035000	12.510908	1441.639175	-175.238295	0.169040	0.000000	-1.033737	0.000000	18.881187	0.000000	16.486859	1488.742074	195.044320	0.167547	0.000000	-1.427917	-0.000000	-18.327732	-0.000000
4.036000	12.590898	1441.517417	-175.336203	0.169307	0.000000	-1.034630	0.000000	18.846944	0.000000	16.467625	1486.940550	194.900921	0.167942	0.000000	-1.427518	-0.000000	-18.272285	-0.000000
4.037000	12.645754	1441.365890	-175.450359	0.169955	0.000000	-1.033792	0.000000	18.811767	0.000000	16.442643	1485.164874	194.740317	0.167292	0.000000	-1.428285	-0.000000	-18.216119	-0.000000
4.038000	12.675459	1441.191484	-175.578883	0.169577	0.000000	-1.035033	0.000000	18.775866	0.000000	16.413559	1483.425213	194.563477	0.168031	0.000000	-1.427442	-0.000000	-18.159604	-0.000000
4.039000	12.680422	1441.001690	-175.719815	0.169029	0.000000	-1.033911	0.000000	18.739434	0.000000	16.381981	1481.731320	194.371516	0.168203	0.000000	-1.428040	-0.000000	-18.103093	-0.000000
4.040000	12.661397	1440.804173	-175.871106	0.169910	0.000000	-1.034336	0.000000	18.702647	0.000000	16.349407	1480.092021	194.165666	0.168454	0.000000	-1.428466	-0.000000	-18.046908	-0.000000
4.041000	12.619366	1440.606425	-176.030632	0.169972	0.000000	-1.034501	0.000000	18.665677	0.000000	16.317197	1478.514769	193.947276	0.168685	0.000000	-1.428517	-0.000000	-17.991342	-0.000000
4.042000	12.555484	1440.415944	-176.196215	0.168711	0.000000	-1.034767	0.000000	18.628692	0.000000	16.286566	1477.005498	193.717823	0.168487	0.000000	-1.428290	-0.000000	-17.936644	-0.000000
4.043000	12.471096	1440.240744	-176.365673	0.169879	0.000000	-1.034163	0.000000	18.591883	0.000000	16.258553	1475.568670	193.478903	0.168483	0.000000	-1.427792	-0.000000	-17.883012	-0.000000
